# xmcd CD database file
#
# Track frame offsets:
#	150
#	28181
#	40011
#	53075
#	77657
#	87326
#	102851
#	118168
#	170125
#	187312
#	199349
#	211333
#	234768
#	255484
#	267188
#	277048
#	291262
#
# Disc length: 4042 seconds
#
# Revision: 3
# Processed by: cddbd v1.5.1PL0 Copyright (c) Steve Scherf et al.
# Submitted via: CDex 1.51
#
DISCID=fa0fc811
DTITLE=BB King - Gold Hits CD2
DYEAR=1900
DGENRE=Blues
TTITLE0=Sweet Sixteen Part I and II Live
TTITLE1=Please Accept My Love  2
TTITLE2=Ain"t Nobody Here But Us Chickens
TTITLE3=The Thrill is Gone
TTITLE4=Sneakin' Around
TTITLE5=I Got Some Help I Don't Need
TTITLE6=Better Not Look Down
TTITLE7=Call It Stormy Monday
TTITLE8=There Must Be A Better World Somewhere
TTITLE9=Help The Poor
TTITLE10=Never Trust a Woman
TTITLE11=Don't Answer The Door
TTITLE12=Nodody Knowa You When Your Down And Out
TTITLE13=Paying The Cost To Be The Boss
TTITLE14=Jack Your Dead
TTITLE15=Sure Had A Wonderful Time Last Night
TTITLE16=It's A Great Great Pleasure
EXTD=Chinese Version
EXTT0=
EXTT1=
EXTT2=
EXTT3=
EXTT4=
EXTT5=
EXTT6=
EXTT7=
EXTT8=
EXTT9=
EXTT10=
EXTT11=
EXTT12=
EXTT13=
EXTT14=
EXTT15=
EXTT16=
PLAYORDER=
